<svg xmlns="http://www.w3.org/2000/svg" viewBox="0 0 652.56 163.36"><defs><style>.cls-1{fill:white;}</style></defs><g id="Layer_2" data-name="Layer 2"><g id="Layer_1-2" data-name="Layer 1"><path class="cls-1" d="M367.83.19c.87,3.24,1.75,6.48,2.59,9.72.63,2.41,1.23,4.82,1.86,7.34H343.33V40.32h1.27c5.71,0,11.43,0,17.15,0,.62,0,1,.06,1.21.78,1.34,5.38,2.71,10.76,4.09,16.24h-23.7V74h28.93c-1.48,5.74-2.91,11.35-4.38,17h-66c0-.52,0-1,0-1.56q0-40.84,0-81.71V6.14l-.5.8c-2.29,4.09-4.59,8.18-6.86,12.27q-9.27,16.71-18.51,33.42-5.52,10-11,20c-.13.24-.22.5-.33.75-.54,1.21.56.62.81.63,10.9,0,21.8,0,32.7,0a6.8,6.8,0,0,1,1.3.26c-.67,2.44-1.35,4.88-2,7.33L295,91H208.67L249.4,17.21H214.2c1.48-5.83,2.92-11.52,4.36-17.21h.24A6.55,6.55,0,0,0,220,.23H300.7A7.94,7.94,0,0,0,302.05,0h2.64a10.82,10.82,0,0,0,1.6.23H366.4C366.88.24,367.35.2,367.83.19Z"/><path class="cls-1" d="M92.37,0Q87.1,6.51,81.85,13t-10.52,13c-1.12,1.38-2.19,2.82-3.39,4.13-.61.65-.49,1.06-.07,1.71Q75.16,43,82.4,54.16l22.95,35.21c.32.49.61,1,1,1.62-.39,0-.69.06-1,.06-14.23,0-28.46,0-42.69,0-1.49,0-1.55-1.14-2-1.9C58.39,85.38,56.2,81.5,54,77.63c-1.76-3.1-3.47-6.23-5.24-9.32-2.11-3.69-4.27-7.36-6.4-11-.25-.43-.43-.89-.8-1.67V91H0V0H41.5V29.5c.41-.48.64-.74.85-1Q52.79,15.62,63.22,2.74c.71-.88,1.36-1.83,2-2.74Z"/><path class="cls-1" d="M439.76,0c1.57.32,3.16.54,4.7,1,9.56,2.73,16.42,8.48,19,18.28,2.74,10.42-1.61,20.61-10.79,26.57-.37.23-.72.48-1.11.74L485.86,91c-.45,0-.78.07-1.11.07q-20,0-39.94,0a1.75,1.75,0,0,1-1.68-1q-9.83-15.28-19.67-30.53a2.65,2.65,0,0,0-.92-.94V91H381c0-.27-.07-.57-.07-.87V.85c0-.19,0-.39,0-.59l1.55,0h54.18A7.83,7.83,0,0,0,438.08,0Zm-6.14,17.34h-11V42.72h11Z"/><path class="cls-1" d="M172.26,0Q181,23.33,189.83,46.65q7.09,18.78,14.24,37.53c.82,2.15,1.68,4.28,2.52,6.42a5.18,5.18,0,0,1-1.07.25q-20.7,0-41.39,0a5.4,5.4,0,0,1-1.22-.29c-.95-2.49-1.92-5-2.86-7.46-.77-2-1.5-4.11-2.25-6.17a3.69,3.69,0,0,0-.84-.21q-10.29,0-20.58,0a4.79,4.79,0,0,0-.88.19q-2.61,7-5.23,13.9l-21.94,0a1.47,1.47,0,0,1-.35-.08c.67-1.89,1.31-3.78,2-5.65,1.24-3.26,2.52-6.5,3.76-9.75q3.25-8.48,6.48-17t6.47-17q3.26-8.54,6.48-17.08l6.48-17c.86-2.26,1.75-4.51,2.61-6.77a1.94,1.94,0,0,0,0-.59Zm-25.6,47.36c-1.62,4.31-3.15,8.38-4.68,12.47h9.47C149.86,55.7,148.31,51.67,146.66,47.36Z"/><path class="cls-1" d="M652.56,74.54c-.64,2.27-1.31,4.53-1.91,6.81-.85,3.21-1.65,6.43-2.48,9.67H582.1c0-.31-.07-.61-.07-.91V.86c0-.2,0-.4,0-.6l6.59,0,59.57,0c.49,1.88,1,3.75,1.47,5.63q1.42,5.45,2.87,10.89v.48h-29v23H625c5.68,0,11.36,0,17,0,.76,0,1.09.17,1.28,1,.83,3.49,1.75,7,2.63,10.43.48,1.87,1,3.75,1.48,5.76H623.61V73.93h27.66c.43,0,.86.08,1.29.12Z"/><path class="cls-1" d="M489.14.19h21.19L532.75,19,551.2,34.44c.29.25.6.48,1.06.84V1.57c0-.44,0-.88,0-1.31L576.05.21a7.71,7.71,0,0,1,.15,1.15q0,44.22,0,88.43v1.27h-1.42c-6.83,0-13.67,0-20.51,0a3.29,3.29,0,0,1-2.26-.83q-19-15.68-38.14-31.31c-.3-.25-.62-.47-1.08-.82V91H489c0-.35,0-.73,0-1.11q0-44.28,0-88.55A7.19,7.19,0,0,1,489.14.19Z"/><path class="cls-1" d="M386.5,148.09c1.9.94,3.35,2.26,3.07,4.56a14.1,14.1,0,0,1-1.2,3.17,4,4,0,0,1,.83,4.81,4.27,4.27,0,0,1-4.26,2.59c-3.47,0-6.94,0-10.42,0V148.09Zm-9.78,2.09v4.33c2.92,0,5.76,0,8.59,0a2.15,2.15,0,1,0-.05-4.3C382.43,150.16,379.6,150.18,376.72,150.18ZM376.65,161c3,0,5.85,0,8.72,0a2.15,2.15,0,0,0,0-4.3c-1.51-.05-3,0-4.54,0h-4.16Z"/><path class="cls-1" d="M327.7,163.21h-2.14V148.13l12,0c2.14.88,3.37,2.32,3.14,4.78a4,4,0,0,1-3.47,3.65c-.37.05-.74.16-1.25.27l4.69,6.3-.2.12c-2.71.77-3.54-1.46-4.78-3-.61-.76-1.11-1.6-1.68-2.39a2.3,2.3,0,0,0-2.34-1.13,35.09,35.09,0,0,1-3.7.11,5.6,5.6,0,0,0-.2,1.07C327.72,159.63,327.72,161.42,327.7,163.21Zm.11-8.72c3,0,5.93,0,8.87,0a2.1,2.1,0,0,0,2-2.18,2.16,2.16,0,0,0-2.19-2.08c-2,0-4.06,0-6.1,0h-2.55Z"/><path class="cls-1" d="M228.63,148.09c1.61.8,3,1.85,3.11,3.8.2,2.67-1.41,4.45-4.23,4.77l-.57.06,4.76,6.39c-1.81.35-3.16.17-4.06-1.69a23.23,23.23,0,0,0-2.83-3.87,2,2,0,0,0-1.81-.88c-1.35.11-2.71,0-4.19,0v6.5h-2.14V148.09Zm-9.81,6.42c3,0,5.78,0,8.6,0a2.15,2.15,0,1,0,.08-4.29c-.91,0-1.83,0-2.75,0h-5.93Z"/><path class="cls-1" d="M243.22,150.25c0,1.38,0,2.75,0,4.12a9,9,0,0,0,1.25.19l9.63,0v2.05c-1.3,0-2.55,0-3.81,0l-7,.14c-.07,1.4-.14,2.8-.22,4.29h13.17v2.13h-15.1v-15.1h15v2H244.49A11,11,0,0,0,243.22,150.25Z"/><path class="cls-1" d="M316.43,161.08v2.13H301.31a3.85,3.85,0,0,1-.08-.58q0-6.93,0-13.87a5,5,0,0,1,.08-.66h15.14c0,.65,0,1.29,0,1.93l-11.72.06c-.42,0-.84.11-1.26.16h0c-.09,1.4-.18,2.79-.28,4.4h11.08c0,2,0,2-2.06,2l-8.72.11c-.1,1.41-.19,2.82-.3,4.32Z"/><path class="cls-1" d="M350,161.05a2.54,2.54,0,0,1,3.37-.72,11.88,11.88,0,0,0,7.22.46,4.73,4.73,0,0,0,2-1.07,1.32,1.32,0,0,0-.49-2.32,4.81,4.81,0,0,0-1.41-.44c-1.33-.12-2.69,0-4-.25a25.86,25.86,0,0,1-5.33-1.26c-1.28-.51-1.64-2-1.5-3.3a3.78,3.78,0,0,1,2.86-3.45c4.28-1.09,8.45-1,12.4,1.38a2.72,2.72,0,0,1-3.51.88,12.45,12.45,0,0,0-7.35-.46c-1.67.31-2.19.91-2.06,2.19.11,1,1,1.56,2.47,1.67a68.67,68.67,0,0,1,7.19.75c3.14.59,4.42,3.48,2.66,5.8a4.64,4.64,0,0,1-2.07,1.47,14.58,14.58,0,0,1-12.1-.94C350.21,161.37,350.13,161.22,350,161.05Z"/><path class="cls-1" d="M423.24,161.26c1.11-1.18,1.94-1.57,3.32-1a13,13,0,0,0,7.64.49,4.17,4.17,0,0,0,.9-.31,1.77,1.77,0,0,0-.5-3.47c-2.54-.27-5.07-.55-7.61-.75-1.92-.15-3.63-1.36-3.78-2.79-.28-2.59.45-3.93,2.78-4.65a15,15,0,0,1,12.4,1.25,2.47,2.47,0,0,1-3.22.82,12.05,12.05,0,0,0-7.74-.39c-1.49.38-2.16,1.1-2,2.08s.92,1.61,2.38,1.74c2,.18,4,.3,6,.51a17,17,0,0,1,2.2.49,3.15,3.15,0,0,1,2.53,3.07A3.44,3.44,0,0,1,436.6,162a12.32,12.32,0,0,1-8.72.9A40.12,40.12,0,0,1,423.24,161.26Z"/><path class="cls-1" d="M292,156.26a7.75,7.75,0,0,1-5.26,6.51,7.51,7.51,0,0,1-9.88-5.19,7.62,7.62,0,0,1,4.15-8.9c2.39-1.13,6.88-.84,8.58,1.64l-1.43,1.37c-3.29-2.39-6.55-1.84-8.38.9a5.39,5.39,0,0,0,2.12,7.9c2.8,1.51,6.47,0,7.7-3.78h-6.17c0-.69-.08-1.38-.13-2.07H292Z"/><path class="cls-1" d="M406.42,148.11c4-.35,7.67,3.3,7.65,7.48a7.85,7.85,0,0,1-7.58,7.66,7.75,7.75,0,0,1-7.79-7.86C398.81,151.68,402.07,147.72,406.42,148.11ZM401,155.62a5.44,5.44,0,1,0,5.37-5.43A5.41,5.41,0,0,0,401,155.62Z"/><path class="cls-1" d="M267.49,163.21h-1.93q0-4.36-.08-8.73c0-2.1,0-4.21,0-6.38h2Z"/></g></g></svg>